# xmcd
#
# Track frame offsets:
#	150
#	12315
#	24370
#	37145
#	49145
#	63300
#	75592
#	86307
#	98595
#	113010
#
# Disc length: 1680 seconds
#
# Revision: 1
# Processed by: cddbd v1.4PL0 Copyright (c) Steve Scherf et al.
# Submitted via: audiograbber 1.81.00
#
DISCID=6c068e0a
DTITLE=Tommy Overstreet - Greatest Hits
DYEAR=1900
DGENRE=Country
TTITLE0=Gwen (Congratulations)
TTITLE1=Heaven Is My Woman's Love
TTITLE2=Send Me No Roses
TTITLE3=I'll Never Break These Chains
TTITLE4=Dream Maker
TTITLE5=You Were A Lade (Jeannie Marie)
TTITLE6=Ann (Don't Go Runnin')
TTITLE7=That's When My Woman Begins
TTITLE8=Heart Of Dixie
TTITLE9=If I Miss You Tonight
EXTD=
EXTT0=
EXTT1=
EXTT2=
EXTT3=
EXTT4=
EXTT5=
EXTT6=
EXTT7=
EXTT8=
EXTT9=
PLAYORDER=
